<mxfile host="app.diagrams.net" modified="2023-11-14T02:10:22.965Z" agent="Mozilla/5.0 (Windows NT 10.0; Win64; x64) AppleWebKit/537.36 (KHTML, like Gecko) Chrome/117.0.0.0 Safari/537.36" etag="oNUiZ254sn2AoRCDuiF5" version="22.1.0" type="device">
  <diagram name="PÃ¡gina-1" id="0n8ty_jARPlWTvvhVVBT">
    <mxGraphModel dx="1956" dy="991" grid="1" gridSize="10" guides="1" tooltips="1" connect="1" arrows="1" fold="1" page="1" pageScale="1" pageWidth="827" pageHeight="1169" math="0" shadow="0">
      <root>
        <mxCell id="0" />
        <mxCell id="1" parent="0" />
        <mxCell id="Q2bHg4-huvtV1Vr1IJEo-8" value="" style="rounded=0;whiteSpace=wrap;html=1;rotation=90;" vertex="1" parent="1">
          <mxGeometry x="-269.11" y="269.31" width="1363.67" height="825.22" as="geometry" />
        </mxCell>
        <mxCell id="VXAG-d0pe58U1ajMO5Hk-1" value="" style="rounded=0;whiteSpace=wrap;html=1;" parent="1" vertex="1">
          <mxGeometry x="40" y="40" width="740" height="80" as="geometry" />
        </mxCell>
        <mxCell id="VXAG-d0pe58U1ajMO5Hk-2" value="" style="whiteSpace=wrap;html=1;aspect=fixed;" parent="1" vertex="1">
          <mxGeometry x="80" y="50" width="60" height="60" as="geometry" />
        </mxCell>
        <mxCell id="VXAG-d0pe58U1ajMO5Hk-3" value="" style="shape=mxgraph.sysml.x;" parent="1" vertex="1">
          <mxGeometry x="80" y="50" width="60" height="60" as="geometry" />
        </mxCell>
        <mxCell id="VXAG-d0pe58U1ajMO5Hk-6" value="&lt;b&gt;Home&lt;/b&gt;" style="rounded=1;html=1;shadow=0;dashed=0;whiteSpace=wrap;fontSize=10;align=center;" parent="1" vertex="1">
          <mxGeometry x="200" y="65.78" width="105.5" height="28.44" as="geometry" />
        </mxCell>
        <mxCell id="VXAG-d0pe58U1ajMO5Hk-7" value="&lt;b&gt;Porfolio&lt;/b&gt;" style="rounded=1;html=1;shadow=0;dashed=0;whiteSpace=wrap;fontSize=10;align=center;" parent="1" vertex="1">
          <mxGeometry x="340" y="65.78" width="105.5" height="28.44" as="geometry" />
        </mxCell>
        <mxCell id="VXAG-d0pe58U1ajMO5Hk-8" value="&lt;b&gt;Curriculum&lt;/b&gt;" style="rounded=1;html=1;shadow=0;dashed=0;whiteSpace=wrap;fontSize=10;align=center;" parent="1" vertex="1">
          <mxGeometry x="480" y="65.78" width="105.5" height="28.44" as="geometry" />
        </mxCell>
        <mxCell id="VXAG-d0pe58U1ajMO5Hk-9" value="&lt;b&gt;Contact me&lt;/b&gt;" style="rounded=1;html=1;shadow=0;dashed=0;whiteSpace=wrap;fontSize=10;align=center;" parent="1" vertex="1">
          <mxGeometry x="620" y="65.78" width="105.5" height="28.44" as="geometry" />
        </mxCell>
        <mxCell id="VXAG-d0pe58U1ajMO5Hk-12" value="Welcome" style="text;strokeColor=none;fillColor=none;html=1;fontSize=24;fontStyle=1;verticalAlign=middle;align=center;" parent="1" vertex="1">
          <mxGeometry x="360" y="130" width="100" height="40" as="geometry" />
        </mxCell>
        <mxCell id="VXAG-d0pe58U1ajMO5Hk-13" value="&lt;h1&gt;&lt;p style=&quot;font-family: var(--paragraph-font); color: var(--paragraph-color-on-white); padding: 1em; font-size: 18px; font-weight: 400; text-align: center;&quot;&gt;Welcome to my personal website! If you&#39;re looking for a talented web developer who&#39;s passionate about creating innovative, user-friendly digital experiences, you&#39;re in the right place. This site is your gateway to exploring my web development journey, from personal projects that reflect my creativity to professional work that showcases my ability to deliver real-world solutions.&lt;/p&gt;&lt;/h1&gt;&lt;h1&gt;&lt;p style=&quot;font-family: var(--paragraph-font); color: var(--paragraph-color-on-white); padding: 1em; font-size: 18px; font-weight: 400; text-align: center;&quot;&gt;&lt;span style=&quot;color: var(--paragraph-color-on-white); font-family: var(--paragraph-font); background-color: initial;&quot;&gt;As a web developer, I&#39;m dedicated to crafting web experiences that not only look great but also function seamlessly. Whether you&#39;re a potential employer, fellow web developer, or simply someone interested in the world of web development, this website is designed to provide you with a comprehensive view of my skills, expertise, and the projects I&#39;ve worked on.&lt;/span&gt;&lt;/p&gt;&lt;/h1&gt;" style="text;html=1;strokeColor=none;fillColor=none;spacing=5;spacingTop=-20;whiteSpace=wrap;overflow=hidden;rounded=0;" parent="1" vertex="1">
          <mxGeometry x="40" y="170" width="740" height="310" as="geometry" />
        </mxCell>
        <mxCell id="VXAG-d0pe58U1ajMO5Hk-15" value="&lt;div style=&quot;&quot;&gt;&lt;span style=&quot;background-color: initial;&quot;&gt;&lt;font style=&quot;font-size: 18px;&quot;&gt;A web developer is more than just a coder; they are a problem solver, a creative thinker, and a collaborator. In the &quot;About Me&quot; section, you&#39;ll get to know the person behind the code. You&#39;ll discover my educational background, my professional journey, and what motivates me to excel in the field of web development. Web development is not just a job; it&#39;s a passion. I&#39;m committed to staying current with the latest technologies and trends in the industry, and I take pride in my ability to learn, adapt, and evolve as a developer. My work ethic, dedication to excellence, and values as a professional are all aspects you&#39;ll find in this section, helping you understand the person you might potentially work with or collaborate with.&lt;/font&gt;&lt;/span&gt;&lt;/div&gt;" style="text;html=1;strokeColor=none;fillColor=none;align=left;verticalAlign=middle;whiteSpace=wrap;rounded=0;" parent="1" vertex="1">
          <mxGeometry x="40" y="530" width="450" height="340" as="geometry" />
        </mxCell>
        <mxCell id="VXAG-d0pe58U1ajMO5Hk-16" value="&lt;h4 style=&quot;font-family: var(--heading-font); color: var(--headline-color-on-white);&quot;&gt;&lt;font style=&quot;font-size: 18px;&quot;&gt;About Me: Discovering the Web Developer Behind the Code&lt;/font&gt;&lt;/h4&gt;" style="text;strokeColor=none;fillColor=none;html=1;fontSize=24;fontStyle=1;verticalAlign=middle;align=left;" parent="1" vertex="1">
          <mxGeometry x="165" y="490" width="490" height="40" as="geometry" />
        </mxCell>
        <mxCell id="VXAG-d0pe58U1ajMO5Hk-17" value="" style="whiteSpace=wrap;html=1;aspect=fixed;" parent="1" vertex="1">
          <mxGeometry x="520" y="550" width="260" height="260" as="geometry" />
        </mxCell>
        <mxCell id="VXAG-d0pe58U1ajMO5Hk-18" value="" style="shape=mxgraph.sysml.x;" parent="1" vertex="1">
          <mxGeometry x="520" y="550" width="260" height="260" as="geometry" />
        </mxCell>
        <mxCell id="VXAG-d0pe58U1ajMO5Hk-19" value="&lt;div style=&quot;&quot;&gt;&lt;p style=&quot;font-family: var(--paragraph-font); color: var(--paragraph-color-on-white); padding: 1em; font-size: 18px;&quot;&gt;The ever-evolving world of web development is filled with challenges, opportunities, and innovations. In my blog, I share my thoughts, insights, and experiences related to web development. This section is not only a testament to my commitment to continuous learning but also a valuable resource for fellow web developers and anyone interested in the field. You can expect to find articles about best practices in web development, emerging technologies, and in-depth reflections on the lessons I&#39;ve learned from my projects. These articles are designed to provide you with a deeper understanding of the strategies and methodologies that drive my work, helping you stay informed and inspired in the world of web development.&lt;/p&gt;&lt;div&gt;&lt;br&gt;&lt;/div&gt;&lt;/div&gt;" style="text;html=1;strokeColor=none;fillColor=none;align=left;verticalAlign=middle;whiteSpace=wrap;rounded=0;" parent="1" vertex="1">
          <mxGeometry x="20" y="910" width="480" height="380" as="geometry" />
        </mxCell>
        <mxCell id="VXAG-d0pe58U1ajMO5Hk-20" value="&lt;h4 style=&quot;font-family: var(--heading-font); color: var(--headline-color-on-white); font-size: 18px; text-align: center;&quot;&gt;Blog and Insights: Navigating the Web Development Landscape&lt;/h4&gt;" style="text;strokeColor=none;fillColor=none;html=1;fontSize=24;fontStyle=1;verticalAlign=middle;align=left;" parent="1" vertex="1">
          <mxGeometry x="147.75" y="870" width="490" height="40" as="geometry" />
        </mxCell>
        <mxCell id="VXAG-d0pe58U1ajMO5Hk-21" value="" style="whiteSpace=wrap;html=1;aspect=fixed;" parent="1" vertex="1">
          <mxGeometry x="520" y="940" width="260" height="260" as="geometry" />
        </mxCell>
        <mxCell id="VXAG-d0pe58U1ajMO5Hk-23" value="" style="shape=mxgraph.sysml.x;" parent="1" vertex="1">
          <mxGeometry x="520" y="940" width="260" height="260" as="geometry" />
        </mxCell>
        <mxCell id="Q2bHg4-huvtV1Vr1IJEo-1" value="" style="rounded=0;whiteSpace=wrap;html=1;" vertex="1" parent="1">
          <mxGeometry x="40" y="1280" width="740" height="62" as="geometry" />
        </mxCell>
        <mxCell id="Q2bHg4-huvtV1Vr1IJEo-2" value="&lt;p style=&quot;font-weight: 400; text-align: start; font-size: 14px;&quot;&gt;&lt;font style=&quot;font-size: 14px;&quot;&gt;Personal Site 2023 - Julian Maccaferri&lt;/font&gt;&lt;/p&gt;&lt;div style=&quot;font-size: 14px;&quot;&gt;&lt;br&gt;&lt;/div&gt;" style="text;strokeColor=none;fillColor=none;html=1;fontSize=24;fontStyle=1;verticalAlign=middle;align=center;" vertex="1" parent="1">
          <mxGeometry x="140" y="1302" width="100" height="40" as="geometry" />
        </mxCell>
        <mxCell id="Q2bHg4-huvtV1Vr1IJEo-3" value="&lt;span style=&quot;font-size: 12px;&quot;&gt;Site Plan&lt;/span&gt;" style="text;strokeColor=none;fillColor=none;html=1;fontSize=24;fontStyle=1;verticalAlign=middle;align=center;" vertex="1" parent="1">
          <mxGeometry x="340" y="1290" width="100" height="40" as="geometry" />
        </mxCell>
        <mxCell id="Q2bHg4-huvtV1Vr1IJEo-4" value="&lt;span style=&quot;font-size: 12px;&quot;&gt;Contact Me&lt;/span&gt;" style="text;strokeColor=none;fillColor=none;html=1;fontSize=24;fontStyle=1;verticalAlign=middle;align=center;" vertex="1" parent="1">
          <mxGeometry x="460" y="1289.5" width="100" height="40" as="geometry" />
        </mxCell>
        <mxCell id="Q2bHg4-huvtV1Vr1IJEo-5" value="" style="shape=image;html=1;verticalAlign=top;verticalLabelPosition=bottom;labelBackgroundColor=#ffffff;imageAspect=0;aspect=fixed;image=https://cdn1.iconfinder.com/data/icons/social-media-2285/512/Colored_Facebook3_svg-128.png" vertex="1" parent="1">
          <mxGeometry x="610" y="1295" width="30" height="30" as="geometry" />
        </mxCell>
        <mxCell id="Q2bHg4-huvtV1Vr1IJEo-6" value="" style="shape=image;html=1;verticalAlign=top;verticalLabelPosition=bottom;labelBackgroundColor=#ffffff;imageAspect=0;aspect=fixed;image=https://cdn2.iconfinder.com/data/icons/social-media-2285/512/1_Twitter3_colored_svg-128.png" vertex="1" parent="1">
          <mxGeometry x="670" y="1295.5" width="30" height="30" as="geometry" />
        </mxCell>
        <mxCell id="Q2bHg4-huvtV1Vr1IJEo-7" value="" style="dashed=0;outlineConnect=0;html=1;align=center;labelPosition=center;verticalLabelPosition=bottom;verticalAlign=top;shape=mxgraph.weblogos.instagram;fillColor=#6FC0E4;gradientColor=#1E305B" vertex="1" parent="1">
          <mxGeometry x="730" y="1294.5" width="30" height="30" as="geometry" />
        </mxCell>
      </root>
    </mxGraphModel>
  </diagram>
</mxfile>
